<svg width="80" height="80" viewBox="0 0 80 80" fill="none" xmlns="http://www.w3.org/2000/svg">
<path d="M40 24.8666C40 28.8799 38.4058 32.7289 35.5681 35.5669C32.7304 38.4049 28.8816 39.9995 24.8683 40C21.7283 36.0633 20.0017 31.035 20.0017 25.8333C20.0017 13.8666 28.955 4.16663 40.0017 4.16663C49.175 4.16663 57.1733 10.9283 59.4017 20.5683M40 55.1333C40 51.1197 41.5944 47.2705 44.4324 44.4324C47.2705 41.5944 51.1197 40 55.1333 40C58.2733 43.9366 60 48.965 60 54.1666C60 66.1333 51.0467 75.8333 40 75.8333C30.8267 75.8333 22.8283 69.0716 20.6 59.4316" stroke="#0089A7" stroke-width="4" stroke-linecap="round" stroke-linejoin="round"/>
<path d="M55.1333 40C51.1197 40 47.2705 38.4056 44.4324 35.5676C41.5944 32.7295 40 28.8803 40 24.8667C43.9367 21.7267 48.965 20 54.1667 20C66.1333 20 75.8333 28.9533 75.8333 40C75.8333 49.1733 69.0717 57.1717 59.4317 59.4M24.8667 40C28.88 40 32.729 41.5942 35.567 44.4319C38.405 47.2696 39.9996 51.1183 40 55.1317C36.0633 58.2717 31.035 59.9983 25.8333 59.9983C13.8667 59.9983 4.16666 51.045 4.16666 39.9983C4.16666 30.825 10.9283 22.8267 20.5683 20.5983" stroke="#0089A7" stroke-width="4" stroke-linecap="round" stroke-linejoin="round"/>
</svg>
