<svg width="94" height="94" viewBox="0 0 94 94" fill="none" xmlns="http://www.w3.org/2000/svg">
<path d="M47 83.2292C71.4616 68.4125 82.9942 43.5181 82.9942 20.2551C82.9942 20.2551 71.1404 10.7709 47 10.7709C22.8597 10.7709 11.0059 20.2531 11.0059 20.2531C11.0059 43.5181 22.5385 68.4125 47 83.2292Z" stroke="#0089A7" stroke-width="4" stroke-linecap="round" stroke-linejoin="round"/>
<path d="M36.4054 75.529C37.6151 73.8505 39.2068 72.4839 41.049 71.542C42.8912 70.6002 44.931 70.1101 47 70.1123C48.5044 70.1048 49.9982 70.364 51.4121 70.878C53.9002 71.7604 56.0584 73.3835 57.5965 75.529M16.4539 47.7559C24.6456 40.6472 35.3205 36.3937 47 36.3937C52.311 36.3937 57.4379 37.2651 62.1947 38.9317M25.57 63.875C28.2685 60.8653 31.5726 58.4598 35.2658 56.8162C38.9589 55.1727 42.9577 54.3281 47 54.3379C50.3037 54.3379 53.5017 54.8921 56.4588 55.9222M62.1869 38.9238L51.42 70.8878" stroke="#0089A7" stroke-width="4" stroke-linecap="round" stroke-linejoin="round"/>
</svg>
