<svg width="39" height="39" viewBox="0 0 39 39" fill="none" xmlns="http://www.w3.org/2000/svg">
<path d="M25.1021 26.3866C24.9319 26.3532 24.7699 26.2865 24.6256 26.1904C24.4812 26.0943 24.3572 25.9706 24.2607 25.8265C24.1643 25.6824 24.0972 25.5206 24.0634 25.3505C24.0295 25.1804 24.0296 25.0053 24.0636 24.8352L25.6172 16.991L12.2023 25.9706C11.9118 26.1651 11.556 26.2361 11.2132 26.1682C10.8704 26.1003 10.5685 25.899 10.3741 25.6086C10.1797 25.3181 10.1086 24.9624 10.1765 24.6195C10.2444 24.2767 10.4458 23.9749 10.7362 23.7804L24.1511 14.8008L16.3057 13.2454C15.9623 13.1774 15.6599 12.9758 15.4652 12.6848C15.2704 12.3939 15.1993 12.0375 15.2673 11.6941C15.3353 11.3506 15.5369 11.0483 15.8279 10.8535C16.1188 10.6588 16.4752 10.5876 16.8187 10.6556L27.7874 12.828C27.9576 12.8614 28.1195 12.9281 28.2639 13.0242C28.4083 13.1203 28.5322 13.244 28.6287 13.3881C28.7252 13.5322 28.7923 13.694 28.8261 13.8641C28.8599 14.0342 28.8599 14.2093 28.8259 14.3794L26.6535 25.3482C26.6201 25.5183 26.5534 25.6803 26.4573 25.8246C26.3612 25.969 26.2375 26.093 26.0934 26.1895C25.9492 26.2859 25.7875 26.353 25.6174 26.3869C25.4473 26.4207 25.2721 26.4206 25.1021 26.3866Z" fill="white"/>
</svg>
